<svg width="78" height="47" viewBox="0 0 78 47" fill="none" xmlns="http://www.w3.org/2000/svg">
<path d="M19.696 46.768C15.984 46.768 12.6773 45.8507 9.776 44.016C6.87467 42.1813 4.592 39.536 2.928 36.08C1.30667 32.5813 0.496 28.4213 0.496 23.6C0.496 18.7787 1.30667 14.64 2.928 11.184C4.592 7.68533 6.87467 5.01866 9.776 3.184C12.6773 1.34933 15.984 0.431999 19.696 0.431999C23.408 0.431999 26.7147 1.34933 29.616 3.184C32.5173 5.01866 34.7787 7.68533 36.4 11.184C38.064 14.64 38.896 18.7787 38.896 23.6C38.896 28.4213 38.064 32.5813 36.4 36.08C34.7787 39.536 32.5173 42.1813 29.616 44.016C26.7147 45.8507 23.408 46.768 19.696 46.768ZM19.696 38C22.4267 38 24.56 36.8267 26.096 34.48C27.6747 32.1333 28.464 28.5067 28.464 23.6C28.464 18.6933 27.6747 15.0667 26.096 12.72C24.56 10.3733 22.4267 9.2 19.696 9.2C17.008 9.2 14.8747 10.3733 13.296 12.72C11.76 15.0667 10.992 18.6933 10.992 23.6C10.992 28.5067 11.76 32.1333 13.296 34.48C14.8747 36.8267 17.008 38 19.696 38ZM77.0305 37.552V46H43.1745V39.28L60.4545 22.96C62.2892 21.2107 63.5265 19.7173 64.1665 18.48C64.8065 17.2 65.1265 15.9413 65.1265 14.704C65.1265 12.912 64.5078 11.5467 63.2705 10.608C62.0758 9.62666 60.3052 9.136 57.9585 9.136C55.9958 9.136 54.2252 9.52 52.6465 10.288C51.0678 11.0133 49.7452 12.1227 48.6785 13.616L41.1265 8.752C42.8758 6.14933 45.2865 4.12267 48.3585 2.672C51.4305 1.17867 54.9505 0.431999 58.9185 0.431999C62.2465 0.431999 65.1478 0.986665 67.6225 2.096C70.1398 3.16267 72.0812 4.69867 73.4465 6.704C74.8545 8.66667 75.5585 10.992 75.5585 13.68C75.5585 16.112 75.0465 18.3947 74.0225 20.528C72.9985 22.6613 71.0145 25.0933 68.0705 27.824L57.7665 37.552H77.0305Z" fill="#343045"/>
</svg>
