<svg width="85" height="47" viewBox="0 0 85 47" fill="none" xmlns="http://www.w3.org/2000/svg">
<path d="M19.696 46.768C15.984 46.768 12.6773 45.8507 9.776 44.016C6.87467 42.1813 4.592 39.536 2.928 36.08C1.30667 32.5813 0.496 28.4213 0.496 23.6C0.496 18.7787 1.30667 14.64 2.928 11.184C4.592 7.68533 6.87467 5.01866 9.776 3.184C12.6773 1.34933 15.984 0.431999 19.696 0.431999C23.408 0.431999 26.7147 1.34933 29.616 3.184C32.5173 5.01866 34.7787 7.68533 36.4 11.184C38.064 14.64 38.896 18.7787 38.896 23.6C38.896 28.4213 38.064 32.5813 36.4 36.08C34.7787 39.536 32.5173 42.1813 29.616 44.016C26.7147 45.8507 23.408 46.768 19.696 46.768ZM19.696 38C22.4267 38 24.56 36.8267 26.096 34.48C27.6747 32.1333 28.464 28.5067 28.464 23.6C28.464 18.6933 27.6747 15.0667 26.096 12.72C24.56 10.3733 22.4267 9.2 19.696 9.2C17.008 9.2 14.8747 10.3733 13.296 12.72C11.76 15.0667 10.992 18.6933 10.992 23.6C10.992 28.5067 11.76 32.1333 13.296 34.48C14.8747 36.8267 17.008 38 19.696 38ZM84.9575 36.592H77.6615V46H67.5495V36.592H43.4215V29.616L64.5415 1.2H75.4215L55.8375 28.144H67.8695V19.76H77.6615V28.144H84.9575V36.592Z" fill="#343045"/>
</svg>
